<svg id="Layer" xmlns="http://www.w3.org/2000/svg" xmlns:xlink="http://www.w3.org/1999/xlink" viewBox="0 0 335.99 235.19"><defs><style>.cls-1{fill:none;}.cls-2,.cls-27,.cls-5{fill:#fff;}.cls-3{fill:#c1dfc4;}.cls-27,.cls-4{opacity:0.5;}.cls-28,.cls-5,.cls-7,.cls-8{opacity:0.2;}.cls-6{fill:url(#Névtelen_színátmenet_7);}.cls-7,.cls-9{fill:#69c0ac;}.cls-10{fill:#e7eced;}.cls-11{fill:#1961ac;}.cls-12{fill:url(#Új_mintázatos_színtár_1);}.cls-13{fill:#fad0c5;}.cls-14{fill:#c9cccc;}.cls-15{fill:#5bc5f2;}.cls-16{fill:#f39b9b;}.cls-17,.cls-28{fill:#2e2868;}.cls-18{fill:#8baddc;}.cls-19{fill:#f6f8f9;}.cls-20{fill:url(#Névtelen_színátmenet_3);}.cls-21,.cls-26,.cls-27{fill-rule:evenodd;}.cls-21{fill:url(#Névtelen_színátmenet_35);}.cls-22{fill:url(#Névtelen_színátmenet_46);}.cls-23{fill:#e7b5a2;}.cls-24{fill:url(#Névtelen_színátmenet_4);}.cls-25{fill:url(#Névtelen_színátmenet_4-2);}.cls-26{fill:#554596;}</style><linearGradient id="Névtelen_színátmenet_7" x1="276.55" y1="130.87" x2="239.15" y2="66.09" gradientUnits="userSpaceOnUse"><stop offset="0" stop-color="#fff"/><stop offset="1" stop-color="#fff" stop-opacity="0.2"/></linearGradient><pattern id="Új_mintázatos_színtár_1" data-name="Új mintázatos színtár 1" width="38.25" height="55" patternTransform="translate(-44.23 -3.86) scale(1.03)" patternUnits="userSpaceOnUse" viewBox="0 0 38.24 55"><rect class="cls-1" width="38.25" height="55"/><rect class="cls-2" width="38.25" height="55"/></pattern><radialGradient id="Névtelen_színátmenet_3" cx="175.28" cy="76.82" r="39.89" gradientUnits="userSpaceOnUse"><stop offset="0.41" stop-color="#f39b9b"/><stop offset="0.56" stop-color="#f5aca9"/><stop offset="0.8" stop-color="#fad0c5"/></radialGradient><radialGradient id="Névtelen_színátmenet_35" cx="166.7" cy="75.63" r="25.09" gradientTransform="translate(2.78 -32.95) rotate(1.49) scale(1 1.38)" gradientUnits="userSpaceOnUse"><stop offset="0" stop-color="#fce1d3"/><stop offset="0.52" stop-color="#fbdfd1"/><stop offset="0.71" stop-color="#f8d9ca"/><stop offset="0.84" stop-color="#f3cfbf"/><stop offset="0.95" stop-color="#ecc0ae"/><stop offset="1" stop-color="#e7b5a2"/></radialGradient><linearGradient id="Névtelen_színátmenet_46" x1="168.05" y1="105.72" x2="168.05" y2="91.76" gradientUnits="userSpaceOnUse"><stop offset="0" stop-color="#fce1d3"/><stop offset="0.33" stop-color="#fbded0"/><stop offset="0.59" stop-color="#f7d6c6"/><stop offset="0.81" stop-color="#f0c7b6"/><stop offset="1" stop-color="#e7b5a2"/></linearGradient><linearGradient id="Névtelen_színátmenet_4" x1="84.78" y1="97.9" x2="108.91" y2="97.9" gradientUnits="userSpaceOnUse"><stop offset="0" stop-color="#fbd3bd"/><stop offset="0.57" stop-color="#fad1bb"/><stop offset="0.78" stop-color="#f5cab5"/><stop offset="0.93" stop-color="#edbfab"/><stop offset="1" stop-color="#e7b5a2"/></linearGradient><linearGradient id="Névtelen_színátmenet_4-2" x1="186.79" y1="97.9" x2="210.92" y2="97.9" gradientTransform="matrix(-1, 0, 0, 1, 438, 0)" xlink:href="#Névtelen_színátmenet_4"/></defs><title>Artboard 1</title><rect class="cls-3" x="15.61" y="17.76" width="304.76" height="191.52" rx="12.11" ry="12.11"/><g id="window"><g class="cls-4"><rect class="cls-5" x="259.11" y="41.24" width="31.28" height="30.52"/><rect class="cls-6" x="225.13" y="74.18" width="65.44" height="48.6"/><rect class="cls-5" x="225" y="41.24" width="31.59" height="30.52"/></g><path class="cls-7" d="M294.21,125.83v-88H221.49v88ZM225,41.24h31.59V71.76H225Zm34.11,0h31.28V71.76H259.11Zm-34,32.94h65.44v48.6H225.13Z"/></g><g class="cls-8"><path class="cls-9" d="M177.38,110.7H115.12V38.27h62.26Zm-61-1.24h59.78V39.51H116.36Z"/><path class="cls-9" d="M167.21,100.53H125.29V48.44h41.92Zm-40.68-1.24H166V49.68H126.53Z"/><path class="cls-9" d="M174.56,107.88H118V41.1h56.61Zm-55.37-1.24h54.13V42.34H119.19Z"/></g><polygon class="cls-10" points="268.85 221.14 253.09 165.13 245.66 165.13 261.73 221.14 268.85 221.14"/><polygon class="cls-10" points="225.13 221.14 241.21 165.13 233.77 165.13 218.01 221.14 225.13 221.14"/><polygon class="cls-10" points="71.95 221.14 88.03 165.13 80.59 165.13 64.83 221.14 71.95 221.14"/><polygon class="cls-10" points="115.67 221.14 99.91 165.13 92.48 165.13 108.55 221.14 115.67 221.14"/><rect class="cls-7" x="54.95" y="49.2" width="42.67" height="53.33"/><path class="cls-7" d="M44.28,38.53V113.2h64V38.53Zm61,71.71H47.24V41.5h58.08Z"/><rect class="cls-10" x="46.38" y="138.65" width="248.13" height="5.32" rx="2.66" ry="2.66"/><path class="cls-2" d="M67.16,144a4.42,4.42,0,0,0-.62,2.25v8.84A4.46,4.46,0,0,0,71,159.5H269.9a4.46,4.46,0,0,0,4.44-4.44v-8.84a4.41,4.41,0,0,0-.61-2.25Z"/><path class="cls-11" d="M273.34,138.69v-1a9.87,9.87,0,0,0-9.84-9.85H247.66a9.88,9.88,0,0,0-9.85,9.85v1Z"/><rect class="cls-12" x="246.2" y="95.74" width="19.65" height="38.97" rx="1.27" ry="1.27"/><rect class="cls-13" x="247.17" y="97.97" width="17.71" height="33.84" rx="0.64" ry="0.64"/><rect class="cls-14" x="249.06" y="99.52" width="13.78" height="1.93"/><rect class="cls-2" x="249.06" y="101.45" width="13.78" height="29.07"/><rect class="cls-15" x="251.61" y="119.57" width="8.92" height="8.57"/><ellipse class="cls-16" cx="253.81" cy="122.04" rx="0.64" ry="0.6"/><polygon class="cls-10" points="251.78 125.92 260.55 125.92 257.36 121.72 255.28 124.67 254.11 123.46 251.78 125.92"/><rect class="cls-9" x="251.61" y="125.9" width="8.92" height="2.23"/><polygon class="cls-11" points="256.57 103.29 256.57 102.6 260.43 102.6 260.43 103.29 260.43 104.05 260.43 108.53 251.52 108.53 251.52 103.29 256.57 103.29"/><rect class="cls-17" x="252.01" y="102.87" width="4.56" height="0.42"/><rect class="cls-14" x="251.52" y="109.35" width="8.96" height="0.32"/><rect class="cls-14" x="251.52" y="109.99" width="8.96" height="0.32"/><rect class="cls-14" x="251.52" y="110.62" width="4.51" height="0.32"/><polygon class="cls-11" points="256.57 112.28 256.57 111.59 260.43 111.59 260.43 112.28 260.43 113.05 260.43 117.52 251.52 117.52 251.52 112.28 256.57 112.28"/><rect class="cls-17" x="252.01" y="111.86" width="4.56" height="0.42"/><rect class="cls-14" x="251.52" y="118.35" width="8.96" height="0.32"/><circle class="cls-2" cx="250.53" cy="100.47" r="0.46"/><circle class="cls-2" cx="251.89" cy="100.47" r="0.46"/><circle class="cls-2" cx="253.25" cy="100.47" r="0.46"/><rect class="cls-2" x="69.64" y="83.27" width="38.49" height="55.35"/><rect class="cls-10" x="72.89" y="87.41" width="32.59" height="1"/><rect class="cls-10" x="72.89" y="90.34" width="32.59" height="1"/><rect class="cls-10" x="72.89" y="93.26" width="32.59" height="1"/><rect class="cls-10" x="72.89" y="96.19" width="32.59" height="1"/><rect class="cls-10" x="72.89" y="99.11" width="32.59" height="1"/><rect class="cls-10" x="72.89" y="102.04" width="32.59" height="1"/><rect class="cls-10" x="72.89" y="104.96" width="32.59" height="1"/><rect class="cls-10" x="72.89" y="108.09" width="32.59" height="1"/><rect class="cls-10" x="72.89" y="111.02" width="32.59" height="1"/><rect class="cls-10" x="72.89" y="113.94" width="32.59" height="1"/><rect class="cls-10" x="72.89" y="116.87" width="32.59" height="1"/><rect class="cls-10" x="72.89" y="119.79" width="32.59" height="1"/><rect class="cls-10" x="72.89" y="122.72" width="32.59" height="1"/><rect class="cls-10" x="72.89" y="125.64" width="32.59" height="1"/><path class="cls-17" d="M242,134.78a3.85,3.85,0,0,1-3.85,3.85H206.78a3.85,3.85,0,0,1-3.85-3.85V87.44a3.85,3.85,0,0,1,3.85-3.85h31.37A3.85,3.85,0,0,1,242,87.44Z"/><rect class="cls-18" x="205.35" y="88.91" width="33.9" height="44"/><circle class="cls-14" cx="222.3" cy="135.75" r="1.73"/><circle class="cls-14" cx="222.3" cy="86.32" r="1.03"/><rect class="cls-16" x="208.8" y="93.57" width="26.41" height="4.21"/><rect class="cls-19" x="208.8" y="101.15" width="12.08" height="3.65"/><rect class="cls-17" x="223.13" y="101.15" width="12.08" height="3.65"/><rect class="cls-16" x="208.8" y="106.77" width="12.08" height="3.65"/><rect class="cls-19" x="223.13" y="106.77" width="12.08" height="3.65"/><rect class="cls-19" x="208.8" y="112.39" width="12.08" height="3.65"/><rect class="cls-17" x="223.13" y="112.39" width="12.08" height="3.65"/><rect class="cls-16" x="208.8" y="118.01" width="12.08" height="3.65"/><rect class="cls-19" x="223.13" y="118.01" width="12.08" height="3.65"/><rect class="cls-19" x="208.8" y="123.63" width="12.08" height="3.65"/><rect class="cls-17" x="223.13" y="123.63" width="12.08" height="3.65"/><path class="cls-20" d="M194.93,76.64V66.82a26.68,26.68,0,0,0-26.68-26.6h-.16a26.67,26.67,0,0,0-26.68,26.6s0,7.53,0,9.82c0,4.22-1.67,8.63-8.54,8.55,3.31,7.46,9,12.53,15.86,12.52h38.9c6.87,0,12.55-5.06,15.85-12.52C196.61,85.27,194.93,80.86,194.93,76.64Z"/><path class="cls-21" d="M186.34,55.31H166.77c-13.78,0-17.26-4.52-17.93-5.68h-.14V65.05l0,0v9.14c0,11.25,8.51,20.46,18.91,20.46s18.9-9.21,18.9-20.46Z"/><path class="cls-22" d="M167.55,94.62a18.13,18.13,0,0,1-8.73-2.27v5.11c0,4.33,3.52,8.26,7.85,8.26h2.77c4.33,0,7.84-3.93,7.84-8.26v-5.7A18.16,18.16,0,0,1,167.55,94.62Z"/><path class="cls-13" d="M191.18,61.54q-.13-.7-.33-1.38l-1.61-5.35h0a19.09,19.09,0,0,0-21.52-13.1,19.11,19.11,0,0,0-21.52,13.1h0l-1.61,5.35a12.61,12.61,0,0,0-.33,1.38c9.43,3.35,17.53.1,23.46-4.25C173.64,61.64,181.75,64.89,191.18,61.54Z"/><path class="cls-17" d="M173.83,71.87a8.33,8.33,0,0,0,2.06,0,4.1,4.1,0,0,0,.93-.24,4.56,4.56,0,0,0,.86-.42l.13-.07h.07a10.51,10.51,0,0,1,2.14.3,10.54,10.54,0,0,1-2.13.36l.19-.06a3.42,3.42,0,0,1-2.14.79A3.47,3.47,0,0,1,173.83,71.87Z"/><path class="cls-17" d="M159.9,71.87a3.56,3.56,0,0,1-4.26-.14l.21.07a11.13,11.13,0,0,1-2.27-.34,11.13,11.13,0,0,1,2.27-.34h.07l.13.07a4.56,4.56,0,0,0,1.79.67A7.46,7.46,0,0,0,159.9,71.87Z"/><path class="cls-23" d="M166.49,80.24a1.77,1.77,0,0,1-1.53-.52,2.38,2.38,0,0,1-.68-1.7,2.41,2.41,0,0,1,.68-1.7,1.73,1.73,0,0,1,1.53-.51,2.14,2.14,0,0,0-1.29.78,2.39,2.39,0,0,0,0,2.87A2.14,2.14,0,0,0,166.49,80.24Z"/><path class="cls-23" d="M162.75,83.82a1.3,1.3,0,0,0,.84.78,6.63,6.63,0,0,0,1.15.35,12.11,12.11,0,0,0,2.4.22,13,13,0,0,0,2.41-.26,5.64,5.64,0,0,0,1.15-.34c.37-.15.76-.33.87-.75.06.46-.36.81-.69,1.07a5.18,5.18,0,0,1-1.18.58,8.17,8.17,0,0,1-2.55.43,7.42,7.42,0,0,1-2.56-.4,4.35,4.35,0,0,1-1.18-.59C163.08,84.65,162.69,84.28,162.75,83.82Z"/><path class="cls-9" d="M227.67,103.53s-8.79,13.92-22.45,18.17c-2.66-4.84-7.67-24.09-27.94-24.09-.08,4.27-3.56,8.11-7.84,8.11h-2.77c-4.3,0-7.78-3.86-7.84-8.15-21.31,0-25.59,19.26-28.27,24.13-13.66-4.25-22.45-18.17-22.45-18.17l-9,9.31s11.2,25.68,37.43,25.73l29.66.17h3.44l29.66-.17c26.23,0,37.43-25.73,37.43-25.73Z"/><path class="cls-24" d="M100.33,111.55l5.63-5.8c-1.19-1.08-2.75-2.76-1.74-3.41a9.27,9.27,0,0,0-8.49-16.47,8.58,8.58,0,0,0-4.06,4.53l-.93-1.8c-1.33-2.58-2.9-5.13-4.87-4.11s-1,3.3.61,6.34C93.9,105.25,98.82,110.24,100.33,111.55ZM98.06,90.07a3.66,3.66,0,1,1,.16,5.06A3.58,3.58,0,0,1,98.06,90.07Z"/><path class="cls-25" d="M249.51,90.83c1.57-3,2.58-5.33.6-6.34s-3.54,1.53-4.87,4.11l-.92,1.8a8.58,8.58,0,0,0-4.06-4.53,9.27,9.27,0,0,0-8.49,16.47c1,.65-.55,2.33-1.74,3.41l5.63,5.8C237.16,110.24,242.08,105.25,249.51,90.83Zm-11.75,4.3a3.5,3.5,0,1,1,.17-5.06A3.57,3.57,0,0,1,237.76,95.13Z"/><path class="cls-26" d="M188.43,68.54c-.05-.84-.08-.94-1.2-1.29a44,44,0,0,0-10-.44l-.56,0c-3.59.39-8.29,1.63-9.48,1.6-2.93,0-6.86-1.37-10.12-1.63-.7-.06-1.46-.09-2.25-.09a40.26,40.26,0,0,0-7.74.55c-1.12.36-1.15.45-1.2,1.3s.09,1.58.75,1.8c.9.3.91,1.43,1.51,4.69.54,3,1.85,5.31,7.49,5.74a9.86,9.86,0,0,0,2.91-.19,7.34,7.34,0,0,0,5-4.17c1.07-2,.79-4.82,3.59-4.82s2.47,2.82,3.54,4.86c.6,1.15,2.46,4.72,8,4.29a15.22,15.22,0,0,0,1.65-.2c4.26-.73,5.36-2.89,5.84-5.55.59-3.26.6-4.4,1.49-4.7C188.34,70.12,188.48,69.39,188.43,68.54ZM159.59,79.41a5.65,5.65,0,0,1-1.26.42c-2.85.61-7.09-.23-8.38-2.55-1.45-2.6-1.81-7.85,0-9a13.69,13.69,0,0,1,5.08-.7c3.29,0,7.1.57,8.36,2.24C165.23,72.26,162.34,78.11,159.59,79.41Zm24.8-2.17a6.16,6.16,0,0,1-4.26,2.54,9.21,9.21,0,0,1-5.37-.38c-2.75-1.3-5.66-7.14-3.86-9.54,1-1.28,3.42-1.92,6-2.15,3.17-.28,6.51.05,7.43.59C186.19,69.39,185.83,74.64,184.39,77.24Z"/><path class="cls-27" d="M184.34,68.3c1.85,1.09,1.49,6.34,0,8.94s-7,3.41-9.63,2.16-5.66-7.14-3.86-9.54C173,67,182.69,67.33,184.34,68.3Zm-34.39,9c1.5,2.69,7,3.4,9.64,2.13s5.64-7.15,3.84-9.54c-2.15-2.85-11.8-2.51-13.44-1.54C148.14,69.43,148.5,74.68,150,77.28Z"/><path class="cls-28" d="M145.09,122.44s1.18,16.06,8.48,16.06H145Z"/><rect class="cls-14" x="228.94" y="159.69" width="29.55" height="5.44" transform="translate(487.44 324.81) rotate(180)"/><polygon class="cls-28" points="241.35 165.13 240.84 166.93 233.41 166.93 233.92 165.13 241.35 165.13 241.35 165.13"/><polygon class="cls-28" points="245.8 165.13 246.32 166.93 253.74 166.93 253.23 165.13 245.8 165.13 245.8 165.13"/><polygon class="cls-16" points="141.09 138.63 121.04 138.63 123.97 135.99 138.17 135.99 141.09 138.63"/><path class="cls-2" d="M145.23,123.68a14.74,14.74,0,0,0-.42-3.48H117.24a14.74,14.74,0,0,0-.43,3.48A14.19,14.19,0,0,0,123.94,136h14.17A14.18,14.18,0,0,0,145.23,123.68Z"/><path class="cls-13" d="M145.18,124.9c0-.41,0-.81,0-1.22a14.74,14.74,0,0,0-.42-3.48H117.24a14.24,14.24,0,0,0-.43,3.48c0,.43,0,.85.07,1.27C124.4,124.87,135.87,124.85,145.18,124.9Z"/><rect class="cls-18" x="131.39" y="123.65" width="5.48" height="8.37"/><rect class="cls-2" x="132.22" y="124.98" width="3.74" height="0.49"/><rect class="cls-2" x="132.22" y="125.81" width="3.74" height="0.49"/><rect class="cls-2" x="132.22" y="127" width="3.74" height="3.16"/><rect class="cls-2" x="133.77" y="120.19" width="0.74" height="3.48"/><rect class="cls-14" x="75.33" y="159.69" width="29.55" height="5.44"/><polygon class="cls-28" points="92.47 165.13 92.99 166.93 100.42 166.93 99.91 165.13 92.47 165.13 92.47 165.13"/><polygon class="cls-28" points="88.03 165.13 87.51 166.93 80.09 166.93 80.6 165.13 88.03 165.13 88.03 165.13"/><path class="cls-7" d="M288.89,166.06H277.31a3.66,3.66,0,0,0-3.65,3.64v11.59a3.66,3.66,0,0,0,3.65,3.65h11.58a3.66,3.66,0,0,0,3.65-3.65V169.7A3.66,3.66,0,0,0,288.89,166.06Zm-5.79,14.87a5.43,5.43,0,1,1,5.43-5.43A5.43,5.43,0,0,1,283.1,180.93Z"/><path class="cls-7" d="M201.44,46.05V60h14v-14Zm12.87,12.87H202.56V55.37h11.75Zm-11.75-4.67V47.17h11.75v7.08Z"/><path class="cls-7" d="M201.44,64.8v14h14v-14Zm12.87,12.87H202.56V74.13h11.75ZM202.56,73V65.92h11.75V73Z"/><path class="cls-16" d="M62.29,102.21l9.31,24.42a1.55,1.55,0,0,1-.9,2l-.62.24a1.56,1.56,0,0,1-2-.9l-9.3-24.42Z"/><polygon class="cls-2" points="58.19 96.63 58.79 103.54 62.31 102.21 58.19 96.63"/><polygon class="cls-17" points="58.34 98.39 58.19 96.63 59.24 98.05 58.34 98.39"/><path class="cls-17" d="M68.45,102.21l9.31,24.42a1.55,1.55,0,0,1-.9,2l-.62.24a1.55,1.55,0,0,1-2-.9l-9.31-24.42Z"/><polygon class="cls-2" points="64.35 96.63 64.95 103.54 68.47 102.21 64.35 96.63"/><polygon class="cls-17" points="64.5 98.39 64.35 96.63 65.4 98.05 64.5 98.39"/><path class="cls-15" d="M78,102.21l-9.3,24.42a1.56,1.56,0,0,0,.89,2l.63.24a1.56,1.56,0,0,0,2-.9l9.3-24.42Z"/><polygon class="cls-2" points="82.06 96.63 81.46 103.54 77.94 102.21 82.06 96.63"/><polygon class="cls-17" points="81.9 98.39 82.06 96.63 81.01 98.05 81.9 98.39"/><path class="cls-17" d="M83.46,113.56H60.55a.67.67,0,0,0-.64.7v23.35a.67.67,0,0,0,.64.7H83.46a.68.68,0,0,0,.64-.7V114.26A.67.67,0,0,0,83.46,113.56Z"/></svg>